<svg width="172" height="199" viewBox="0 0 172 199" fill="none" xmlns="http://www.w3.org/2000/svg">
<path fill-rule="evenodd" clip-rule="evenodd" d="M123.639 140.45C124.512 139.897 123.106 140.229 124.225 139.865C123.935 140.449 124.356 140.032 123.639 140.45ZM100.207 120.558C100.39 120.895 100.299 120.745 100.373 120.986C100.386 121.028 100.41 121.232 100.424 121.3C101.62 121.395 100.674 121.382 100.977 121.041L101.662 120.802C102.847 121.962 104.186 125.963 104.934 127.822C106.198 130.963 108.964 133.379 109.101 133.888C106.128 134.373 103.36 135.088 100.317 135.532C97.1047 136.002 93.7987 136.294 90.4922 136.395C91.0548 129.848 91.2978 123.636 90.9156 116.973C90.7275 113.695 90.2534 110.809 90.6354 107.452C90.8022 105.987 91.0771 104.553 91.2388 103.061C91.408 101.503 91.3476 99.8297 91.5246 98.3395C96.2653 97.2777 97.4344 97.5964 102.029 98.1606C102.285 96.9129 100.549 94.8358 100.081 94.1997C99.0586 92.8111 100.634 92.1284 98.3108 90.1201C97.7301 89.618 97.1835 89.4389 96.6855 88.8193C96.24 88.2654 95.9085 87.3144 95.5198 86.8487C94.737 85.911 92.6854 85.2573 91.4561 84.6763C91.2741 78.8948 88.718 74.4241 86.9068 69.3173C86.103 67.0511 86.5333 66.0664 87.3778 64.1046C87.9843 62.6951 88.6598 60.5322 88.8812 58.9458C89.8908 51.7215 95.008 53.7048 95.4995 56.1605C95.6784 57.0543 95.6416 58.2645 95.8493 59.1414C96.1861 60.5636 96.5388 60.2725 97.2181 61.2507C97.0919 63.1267 97.1538 64.437 97.1492 66.2692C97.1424 69.082 96.0971 68.3568 95.4419 69.7667C98.753 69.4246 97.499 64.2153 98.2808 61.3877C103.384 61.5268 101.038 66.5098 101.678 68.3831C102.154 68.1825 101.981 68.5328 102.305 67.7297C102.74 66.6488 102.783 65.1855 102.66 64.0335C102.451 62.0763 101.574 61.3394 100.57 60.4144L101.522 59.827C104.805 58.9306 105.778 65.2502 108.376 63.9682C108.055 63.3375 107.561 63.153 107.037 62.7899C105.373 61.6375 105.383 59.7972 103.364 58.8022C103.852 58.0102 104.804 57.6328 105.763 57.9988C106.497 58.2795 106.955 58.9342 107.854 59.2637C107.664 57.6377 105.33 56.4168 103.332 57.4701C101.698 58.3312 100.349 59.7564 97.8904 59.5787C97.0709 58.0153 97.6363 56.0757 96.9536 54.0491C96.255 51.9753 97.9479 50.1626 99.17 49.772C100.706 50.8937 101.984 55.4981 103.962 54.5611L103.433 54.0612C102.763 53.605 102.288 53.1275 101.881 52.2688C101.433 51.3235 100.813 50.2035 100.47 49.3535L104.241 49.2865C105.02 50.9742 105.611 52.1963 107.579 52.856C108.618 53.2046 109.522 53.1921 110.634 53.3519C112.322 53.5943 111.833 53.9248 112.758 54.6467C114.237 51.7239 106.01 53.7043 105.423 48.6635C106.646 47.9518 107.146 47.1134 108.983 48.0966C110.233 48.7658 111.122 49.3201 112.791 48.7431C114.774 48.0575 117.974 45.9893 118.475 43.8306C117.001 44.3859 115.843 45.9472 114.174 46.78C112.291 47.7195 109.707 47.2258 108.919 45.4842C114.473 42.6751 114.235 43.242 115.495 36.4325C115.604 35.8462 115.824 34.9916 115.476 34.5391C114.106 37.8637 114.708 41.8255 110.836 43.4431C109.362 44.0586 109.026 44.3105 107.844 45.0496C107.35 45.3583 106.885 45.3817 106.259 45.5558C103.548 46.3103 104.307 47.1593 100.54 46.4861C98.832 46.1807 98.5453 45.9501 98.062 44.3727C97.6225 42.9383 97.5224 41.6657 97.6917 40.0479C100.271 40.0808 102.744 42.5866 103.025 42.729C103.037 40.6388 99.9143 40.5701 99.016 39.1174C100.096 38.4874 100.742 38.7045 102.102 38.8367C104.756 39.0949 104.332 41.5956 106.516 42.397C107.497 42.7568 108.919 42.8129 109.431 41.8021C107.771 41.6258 106.838 42.0559 105.844 40.9908C105.229 40.332 104.494 39.0592 104.193 38.0464C104.861 36.7386 105.845 34.7306 108 36.1158C109.517 37.0915 109.981 38.6876 111.562 39.3531C111.381 37.7341 109.726 36.1823 108.825 35.495C106.566 33.7703 106.709 34.3943 104.107 34.9554C104.367 32.0512 104.47 31.4468 106.606 30.2221C107.879 29.4925 109.491 29.044 110.741 28.3159C111.733 27.7386 110.983 28.2852 111.375 27.6967C109.174 27.7908 106.032 29.2705 104.824 30.3246C102.559 32.3009 104.276 34.3495 102.137 36.5722C99.2474 36.3036 99.9881 35.6209 97.4231 37.1307C95.7594 38.11 93.748 36.9472 92.9768 36.0892C91.74 34.7136 91.9411 33.0852 93.1358 32.0113C95.1518 30.1991 95.1269 31.3832 95.1755 27.7202C97.1963 26.3183 97.2086 26.2078 99.7693 27.0094C101.103 27.4269 104.072 27.9668 104.469 26.4785C102.498 26.2356 102.123 26.647 99.948 25.9742C97.5389 25.2289 98.087 25.5011 95.6764 25.6766C97.0677 22.9235 102.736 24.7118 102.223 20.9941C101.025 21.334 102.533 22.2089 96.0342 22.9499C94.0037 19.196 100.57 19.4965 101.919 16.1385C102.156 15.5491 102.147 14.8434 101.888 14.4436C100.954 16.0585 101.895 15.83 100.045 17.1809C99.2017 17.7972 98.0348 18.3957 96.921 18.5635C97.1811 17.3122 98.5767 15.0794 97.2884 13.8092C97.256 13.8501 97.2033 13.8578 97.1948 13.9344L97.0237 14.6167C96.966 15.8498 96.9792 16.511 96.3676 17.6855C93.9757 22.2793 95.094 19.8779 94.9586 23.4298C94.9308 24.1536 94.4935 24.3661 94.1133 25.0432C92.4517 28.0035 95.263 29.4809 91.359 30.6604C91.2021 29.9027 90.8946 29.2343 90.6294 28.613C90.1159 27.4105 90.4093 27.2845 90.3919 25.9489C88.8019 26.677 90.2904 28.9077 90.5413 30.1508C90.7756 31.3124 89.9295 33.4229 89.7883 34.9358C89.159 35.1698 88.3955 35.5793 87.6918 35.7674C84.0928 36.7303 85.4229 32.4791 85.4998 30.3215C85.5793 28.0944 85.0642 27.0326 86.7424 25.8292C89.1515 24.1019 92.2094 23.8845 92.1069 19.8076C90.6712 20.9054 91.8903 22.2184 88.7483 23.8533C88.0568 24.2133 86.9218 24.5936 86.3455 25.0133C85.516 25.6177 85.354 26.304 84.5367 26.9538C81.6624 25.3275 82.2606 25.4255 82.2204 22.3682C83.3473 21.9348 84.9503 21.4854 85.7532 20.867C87.1863 19.7631 86.4443 18.8278 87.8156 17.9105C90.4959 16.1172 91.3773 11.9813 91.0171 11.4207C89.3906 13.2587 90.3547 16.4392 87.0454 17.2494L86.6863 16.6696C86.5816 16.4388 86.5058 16.1644 86.4028 15.898C85.4757 13.4978 85.9316 13.4197 85.9734 10.9292C83.6165 13.2437 86.8017 16.5512 85.9577 19.2085C84.9397 18.9851 83.1123 17.5143 82.5313 16.8427C81.1388 15.2324 82.299 13.6886 81.4712 12.1926C80.8826 19.5059 84.343 17.6345 85.1693 20.1245C84.3621 20.5024 83.2713 20.9982 82.028 20.984C81.0022 19.5866 81.2065 19.2001 79.8827 18.2413C79.2775 17.803 77.4294 16.6288 76.6463 16.9327C76.9384 17.5066 77.6803 17.7041 78.3393 18.111C79.1393 18.6049 79.6588 18.7528 79.9762 19.4703C77.6772 19.6541 77.8217 19.3149 76.2259 18.6597C76.9495 20.2137 79.1231 19.921 80.8236 20.4129C81.4765 22.7729 80.6266 23.7172 80.9959 25.483C81.3624 27.2347 83.0153 27.2618 83.4161 28.7213C83.6721 29.6528 83.1623 32.7037 82.9989 33.8119C82.688 35.9183 82.6495 36.8657 80.7738 37.4225C79.8788 36.3363 80.2352 35.884 79.0037 34.7966C78.108 34.0058 77.1037 33.7676 76.1599 33.0293C76.589 30.5702 78.6466 30.3611 77.6607 26.5042C77.2338 24.8339 76.4831 23.4385 76.1577 21.746C75.987 20.8575 76.1394 20.6206 75.4719 20.1765C74.6768 24.3296 79.125 26.978 75.3418 31.975C74.7727 32.7267 75.4533 32.1786 74.6374 32.4885C73.9346 30.3451 74.4986 26.8209 72.0738 26.4229C72.2611 27.4632 73.0021 27.278 73.2717 28.6381C73.5393 29.9878 73.0468 31.0167 73.1962 32.2037C73.4779 34.4424 75.9135 34.1179 76.9838 35.538C74.962 36.8911 72.2304 36.0699 71.3212 34.3305C70.1917 32.1699 70.4284 29.8152 68.1902 29.1915C68.4704 29.7654 68.1987 29.4168 68.6858 29.8655C69.0688 30.218 68.9571 29.9373 69.3197 30.4747C69.6538 30.9693 69.7984 31.6235 69.9381 32.1805C71.7847 39.5439 75.7247 36.5157 78.4469 36.6066L79.8529 39.944C79.2611 40.5469 78.1645 41.219 77.4291 41.6055C76.2414 41.1566 74.1988 40.2258 72.9467 39.5944C70.5406 38.381 70.9557 38.3917 70.0223 35.8213C67.9367 30.0787 61.8822 35.8349 61.0384 31.3569C62.0096 29.389 63.5863 29.1726 64.952 27.8693C65.6852 27.1695 67.6567 24.2201 66.4219 22.6772C65.6074 24.3122 66.336 25.3256 64.9114 26.9949C64.3725 27.6264 62.3986 28.9819 61.3216 29.3305C61.4204 28.2211 61.7328 27.2476 61.4823 26.163C61.3953 25.7864 60.8588 23.6885 60.7053 23.5067C59.7966 24.3267 61.0225 26.6555 60.5081 28.6894C58.1299 28.385 59.1095 25.5575 57.5628 24.4693C57.716 25.0548 57.9121 25.2652 58.0741 25.8509C58.2329 26.4246 58.1749 27.0428 58.3574 27.6576C58.6773 28.7355 59.445 29.19 60.2387 29.6924C59.9646 33.3136 59.8756 32.2538 61.8875 34.2836C60.8816 35.5895 56.6823 36.409 56.6231 32.8248C56.605 31.7384 56.4621 30.9179 56.4309 30.2054C56.3291 31.6912 55.598 33.7384 56.7212 34.9225L57.512 35.5922C57.7762 35.8622 57.6116 35.6719 57.7874 35.956C55.2492 37.1957 54.3777 34.132 52.8244 33.6581C53.2994 34.5408 54.7169 35.9229 55.6239 36.4291C59.2074 38.4294 66.249 31.5778 68.5168 35.6739C70.541 39.3294 67.686 38.4004 73.6261 41.8449C76.6973 43.6256 78.6108 44.5366 76.6483 48.7259C73.4412 48.5327 71.2402 47.6235 67.604 47.5075C63.6337 43.2543 68.5091 40.4234 67.3949 37.9485C66.6368 38.7589 67.0134 40.5658 65.9315 41.4835C64.8154 40.8544 64.3783 39.8465 64.4158 38.6702L64.2591 37.4246C62.6369 39.9993 66.6203 41.4948 65.3235 44.9275C63.2464 44.3758 60.6444 44.4498 59.5152 42.5829L58.332 40.6876C58.4759 42.9204 60.2334 44.2938 61.9421 44.9451C64.1692 45.7937 66.0133 45.3184 66.4392 48.3858C64.5103 49.6472 62.4912 52.521 59.9056 50.9752C59.3769 50.6592 58.3047 49.823 58.0141 49.3136C57.4682 48.3568 58.6156 46.1123 57.139 43.7071C56.7232 43.0297 56.1877 42.478 55.7692 41.7204C55.3822 41.02 55.402 40.2225 55.1073 39.4958C54.9683 39.1532 54.9678 39.2409 54.852 39.0998C53.5221 41.7218 59.1049 45.3929 56.9424 48.2891C55.767 47.7954 54.7439 46.5644 53.1977 47.4277L54.5273 47.9842C55.8006 48.3456 57.3271 49.3516 57.7492 50.5893C57.6716 50.6399 54.5766 52.1252 54.5106 52.147C52.9922 52.65 52.3718 51.2493 51.3862 50.8587C51.6502 51.2401 52.8317 52.44 53.3679 52.7088C55.146 53.6001 56.4606 50.5625 59.7299 52.1897C61.1932 52.9182 61.6235 52.5763 63.1865 52.4651C62.4336 54.2074 61.5977 55.0734 60.6159 56.5568C62.8642 55.9891 64.8055 50.6396 67.1466 49.5058C69.2755 48.4745 70.7224 49.6806 72.5512 50.2315C76.0816 51.2948 77.4293 50.8439 78.9217 54.3445C79.7146 56.2043 77.4042 59.8021 74.7207 59.892C72.5517 59.9648 71.3041 58.242 70.3039 57.2953C69.2351 56.2841 66.7044 54.8261 65.7906 56.8046C67.1952 56.5435 67.1751 55.6611 68.7424 56.7666C69.5479 57.3348 70.3595 58.0344 70.7243 58.9567C69.0033 59.1409 68.932 58.8493 67.4742 59.6546C66.3092 60.2979 66.0764 60.6661 64.4083 60.5912C64.6162 60.7894 64.5688 61.1578 65.6941 61.0176C68.748 60.6366 68.126 58.5447 72.7115 60.5288C73.8379 61.0162 74.6441 60.8759 75.9066 60.8496C75.3737 61.8862 74.7947 62.3724 73.7943 62.8385C72.3356 63.5183 71.3176 62.838 69.6945 63.1661C68.5476 64.4222 69.231 66.0413 68.0849 66.5436C66.5901 67.1988 65.7589 65.4289 64.8482 64.9667C65.1596 65.9772 66.5483 67.3117 67.8139 67.3823C69.7544 67.4901 69.5808 65.7966 70.3215 64.554C71.5639 64.4706 72.3288 64.8908 73.9556 64.7708C73.4264 66.767 72.3634 66.54 72.1992 69.6173C72.0341 72.7083 71.2815 71.6983 69.6932 72.9484C69.2701 73.2813 69.4778 73.1321 69.2515 73.4544C73.5383 73.4 72.5599 69.699 73.6152 67.0528C74.2653 67.4471 74.9163 68.8778 75.2272 69.7287C75.8379 71.4007 75.3609 71.7433 74.9596 73.1384C77.6365 71.9848 74.764 67.9088 74.6308 66.481C74.4309 64.3364 76.3107 63.6153 77.3807 62.2498C77.7298 61.8045 77.9 61.3479 78.406 61.0773C78.4399 63.5585 78.8992 63.4456 79.3885 65.3465C80.0456 67.8987 78.9831 68.0548 78.6147 69.8431C79.9774 69.2771 80.0746 67.1543 80.2438 65.7359C81.1598 66.116 80.8739 66.9297 81.4009 67.6535C82.5405 66.3169 80.8804 65.3965 80.2044 64.7484C79.2411 63.8244 79.2935 61.98 79.4664 60.4053C79.6791 58.4683 80.1387 58.1893 81.0008 56.879C82.8236 54.1076 87.2847 53.9495 84.8304 62.1863C83.9369 65.1842 82.9759 66.1856 84.1271 69.7993C85.6569 74.6013 87.8141 77.8263 88.571 83.5193C89.1573 87.9311 88.6283 92.5619 88.6482 97.0094C88.6624 100.264 86.0326 99.139 84.5763 99.7601L80.2516 102.328C79.3162 103.338 79.9015 104.181 78.444 105.117C77.5285 105.706 76.0915 105.976 75.0715 106.327L74.8206 107.615C72.9712 107.289 73.7187 108.134 72.2536 108.967C71.1977 109.567 70.0871 109.594 69.5675 110.667C69.2752 111.271 68.9561 113.212 68.6428 114.159C68.2884 115.228 67.4031 116.429 67.3915 117.275C68.0863 118.159 70.0474 119.47 71.788 119.376C75.7349 119.161 80.0347 118.855 83.9797 119.682C86.1151 120.13 87.0154 121.133 87.9826 122.501C88.0399 124.474 86.8483 135.167 86.2091 136.391L82.0292 136.384C77.6832 136.121 73.8748 135.764 69.7174 135.025C66.8408 134.513 61.0525 133.412 58.6444 132.326C58.1933 131.543 57.7617 130.134 57.3798 129.16C56.8796 127.886 56.7193 126.978 56.7904 125.429C57.2983 122.291 57.5935 120.052 58.3836 117.042C59.1064 114.288 59.8911 111.631 60.3009 108.703C61.1659 102.523 59.6842 100.34 62.4636 100.803C66.8384 101.534 68.8638 99.1405 70.1929 98.6352C70.3955 99.0467 70.3447 99.2227 70.8454 99.4436C70.4719 98.0896 70.8836 97.7523 71.2603 96.7193L71.9974 96.9683C71.8893 96.4244 71.6145 95.9428 71.5855 95.5067C71.5163 94.4618 71.9894 95.4455 71.527 94.2326L72.3825 94.8728C72.2128 94.3779 71.5762 93.4636 71.5383 93.1924C71.4529 92.5856 71.8673 93.5315 71.5257 92.6552C71.3227 92.1344 71.3391 92.5507 71.2216 91.7812L72.3932 92.3462C71.9856 91.6741 71.532 91.2445 70.7923 90.7262L71.3686 90.7705C71.3819 90.7719 71.4547 90.7871 71.4643 90.7555C71.4735 90.7243 71.5269 90.7412 71.5547 90.7262C70.8208 90.0616 70.5421 90.272 70.0078 89.3504C69.4252 88.3452 69.4094 88.5333 68.3406 88.1044C68.219 87.3734 68.8004 87.6095 66.5577 87.3277C66.5746 87.2805 66.615 87.2169 66.6256 87.1935C66.6353 87.1717 66.6779 87.0939 66.688 87.0697L66.7678 86.7252C66.4247 86.759 65.039 87.0201 65.0187 87.0199C64.1559 87.0049 65.3864 86.4549 63.7923 86.8898L62.3749 87.0757C61.1801 86.9445 62.7037 86.247 61.3155 87.12C61.5505 86.2335 61.6151 86.7663 61.2955 86.3268C61.2079 86.446 61.1267 86.6899 60.8011 86.8074C59.8783 87.1403 61.5053 86.6786 60.4314 86.775L60.1382 86.8705C60.107 86.8765 60.0398 86.9138 60.0076 86.9167C59.4001 86.9742 59.6476 86.9043 59.4511 86.6416C59.0271 87.0675 59.3607 86.8043 58.824 87.0905C57.6268 86.5289 57.9921 87.0434 57.3607 86.3892L57.166 86.9055L56.3153 86.4501C56.0728 86.9191 56.5494 85.8629 56.2588 86.6645C56.2534 86.679 56.2246 86.7499 56.2196 86.7629L56.105 86.9936C54.6509 86.5727 54.2319 86.2047 53.3601 86.885L52.5527 86.3892C51.8049 87.0434 52.1651 86.518 50.2599 86.7808C48.139 87.0733 48.455 87.038 48.7054 87.8982L47.5356 87.6707C47.2505 88.4654 46.8621 88.1426 46.3568 88.5891L47.6743 88.4738C47.1935 89.0547 47.2184 88.8734 46.4337 89.2566C45.8218 89.5552 45.7214 89.3199 46.5105 89.8968L45.6013 90.0447C45.6117 90.0716 45.7272 90.3331 45.7275 90.3443C45.74 90.8846 46.0275 90.2222 45.5967 90.5623C45.1055 91.0091 44.4174 91.378 44.766 92.0757L45.0479 92.6066L44.3863 93.6529H45.0375C44.9275 94.7253 44.9263 94.9622 44.4544 95.7433C45.0702 96.0081 43.7775 95.5113 44.7005 95.7917L44.986 96.9976C45.0177 97.014 45.0699 97.0377 45.0827 97.0435L45.2575 98.2104C45.7935 97.8232 45.4164 97.9058 45.9482 97.9433C46.0251 98.0944 46.0154 98.012 46.1464 98.4176C46.16 98.4597 46.1788 98.6676 46.1849 98.737C46.7225 98.4498 47.2005 99.1651 48.015 99.4424C49.0845 99.8065 54.6506 100.463 55.0611 100.758C57.7528 102.695 52.3924 119.481 51.5238 124.588C51.3219 125.775 50.7212 126.712 50.5899 127.63C49.9635 128.067 50.1023 128.38 49.626 128.966C48.2384 128.554 46.8816 127.696 45.4988 127.049C44.1399 126.414 42.797 125.668 41.572 124.909C40.2999 124.121 39.1791 123.383 37.8773 122.543C36.6634 121.759 36.0987 121.211 35.8703 118.568C37.4078 118.873 38.0199 119.026 38.6356 117.581C39.4658 115.634 38.3977 110.171 33.6681 111.32C33.5615 110.162 32.9685 109.769 31.8052 109.598C32.0281 107.618 30.9702 107.493 29.8083 106.614L32.5926 103.795C41.0046 94.5704 35.0209 87.9511 34.2563 83.5396C34.0585 82.3993 34.5669 82.3751 34.8846 81.4523C36.3042 77.3282 36.2421 77.3031 34.3636 75.6749C35.1208 72.1025 38.1398 68.4324 38.3209 67.3612C37.5055 67.6376 37.1919 68.4182 36.632 69.1625C35.4399 70.748 34.7647 71.6492 33.9807 73.62C33.101 75.8318 33.7658 75.2779 32.6095 75.8214C31.0905 76.5351 30.6351 78.9763 31.2474 80.6584C31.7271 81.9752 32.3723 82.0673 32.7606 82.7162C33.142 83.3535 33.1933 84.6592 33.3853 85.428C34.5208 89.9802 36.464 91.8929 34.8677 97.0643C33.9435 100.058 31.0789 104.499 29.041 105.439C28.6863 104.325 28.2678 104.205 26.7965 104.12L26.7501 103.265L27.3146 102.757C27.192 101.979 27.1449 101.976 26.7153 101.313C26.1737 100.477 25.2046 98.9468 23.7896 98.9151C24.3265 99.74 25.7722 99.6723 26.6207 102.079C25.8435 101.499 25.9632 101.316 24.7024 100.59C24.1198 100.255 23.1257 99.7025 22.5068 100.113C25.2974 101.262 22.8554 99.6293 26.1288 102.23L26.1605 104.263C24.854 104.207 23.6801 105.77 23.4105 106.673C23.8075 106.774 24.2931 106.769 24.6744 106.894C25.6598 107.217 25.2009 107.776 28.1796 107.521L28.3969 109.273C27.1577 108.999 27.2409 109.226 26.2388 109.172C24.7104 109.21 24.773 109.09 23.4625 108.852C22.4167 107.95 19.7982 103.329 19.0321 101.668C17.7472 98.8835 16.8287 96.3891 15.9896 92.9741C14.4409 86.6713 14.9632 77.9931 16.0714 71.6354C18.4703 57.8753 23.2478 47.9772 29.7456 38.8611C34.1243 32.7184 41.1218 25.8297 47.4352 21.6391C60.6915 12.8403 75.1939 8.28586 93.1059 9.77434C109.417 11.1296 126.287 19.8308 136.421 30.6882C141.431 36.0556 145.119 40.5604 148.702 47.2531C154.179 57.4825 158.235 70.3375 158.088 84.2458C157.989 93.6166 154.448 103.378 148.936 109.973C147.892 111.222 147.232 111.967 146.235 113.123C145.459 114.024 144.283 115.553 143.173 115.951C142.808 115.089 142.259 114.714 141.77 113.767C140.981 112.239 140.631 106.614 140.398 104.644C139.895 100.397 139.851 95.7927 139.504 91.5238C140.467 91.5286 140.699 91.826 141.567 91.5376C141.507 90.0706 140.44 90.6259 139.911 87.7722C142.12 87.8201 150.656 87.2672 152.252 86.5785C153.015 85.9035 151.596 82.3932 150.732 81.1808C148.539 78.1023 137.805 72.5824 137.785 72.5792C136.955 72.4475 136.11 73.4099 135.388 73.8458L128.746 77.8664C126.998 78.9927 121.645 82.5929 123.408 85.918C125.501 87.0905 133.413 87.3441 135.164 88.4267C135.195 90.1499 134.456 90.1743 134.454 91.5922C136.336 91.7007 135.73 91.1938 136 94.903C136.103 96.3204 136.197 97.8376 136.27 99.3029C136.412 102.136 136.882 104.719 137.119 107.597C137.234 109.001 137.296 110.587 137.222 112.06C137.108 114.332 134.547 114.482 134.725 118.744C134.799 120.507 135.495 121.005 136.024 122.146C135.221 122.481 128.884 126.769 123.459 129.029C122.894 129.264 119.387 130.685 119.18 130.879C118.098 131.001 118.833 131.006 118.569 130.582C120.878 128.571 121.341 119.126 121.901 115.327C122.728 114.968 124.517 115.027 125.499 114.798C127.525 114.325 129.377 113.132 130.266 111.152C130.875 109.795 130.436 108.811 130.237 107.355C130.747 107.041 130.933 106.949 131.147 106.192C130.73 106.682 130.71 106.804 129.98 107.136C129.522 105.626 130.642 106.564 131.503 105.244L129.708 106.108C129.217 105.685 129.005 105.33 128.606 104.941L129.344 104.36C129.673 104.166 129.792 104.188 130.013 103.796C129.433 104.115 129.424 104.229 128.618 104.357C128.652 104.31 128.709 104.182 128.725 104.219L127.853 104.412C127.465 104.174 127.227 104.033 126.829 103.827C126.251 103.528 126.153 103.629 125.99 103.203C126.991 102.621 127.187 102.21 127.433 100.922L126.917 101.352C126.386 101.893 126.408 102.16 125.86 102.61L126.331 100.793C125.731 101.331 125.538 102.177 125.271 103.172L124.658 102.92L125.34 101.145C124.936 101.486 125.047 101.304 124.759 101.891C124.589 102.239 124.468 102.577 124.33 102.858C123.811 102.686 123.431 102.658 123.017 102.433L123.838 100.22C122.754 101.359 123.302 101.946 122.374 102.4C122 101.85 122.33 101.566 122.314 100.609C121.615 101.713 122.278 102.403 120.759 101.972L121.532 100.081C121.275 100.706 120.793 101.26 120.424 101.926L119.511 101.838L119.818 100.164C119.506 100.594 119.662 100.318 119.417 100.905C118.936 102.06 119.478 101.552 118.611 101.656C118.337 101.075 118.406 100.848 118.353 100.101L118.147 101.583C117 101.646 117.169 101.775 116.436 99.5618L116.819 101.628C115.657 101.579 115.998 101.689 115.564 100.636C115.406 100.253 115.02 99.6216 114.991 99.4514L115.672 101.68C113.567 101.897 115.002 101.726 113.581 100.924C113.926 101.58 113.888 101.253 114.076 102.029C113.178 102.09 113.529 102.391 112.382 100.84C112.65 102.15 113.694 102.089 112.131 102.733L111.501 101.779C111.314 101.382 111.145 101.14 110.972 100.854L111.766 103.029L110.895 103.868C110.455 103.384 110.785 103.8 110.51 102.892L110.329 104.725C109.211 104.389 109.75 103.792 108.807 104.314C109.118 105.195 109 104.717 109.286 104.984C110.046 106.001 109.862 105.783 109.792 107.407L108.25 106.254C108.751 106.874 109.077 106.991 109.559 107.507C110.133 108.122 109.994 108.591 110.405 109.331C110.19 109.498 110.45 109.386 110.012 109.528C109.79 109.601 109.711 109.568 109.437 109.668C110.557 109.869 110.632 109.945 111.261 110.602C111.176 111.109 111.444 110.877 110.989 111.114C111.816 111.277 112.894 112.229 113.373 112.9L112.322 113.414C113.743 113.167 113.359 112.773 114.674 113.469C116.561 114.467 118.207 113.771 118.791 119.184C119.278 123.688 116.898 129.601 114.348 130.989C113.871 131.249 112.415 131.926 111.927 131.966C107.69 132.315 105.439 124.996 105.374 121.871C105.339 120.202 105.396 120.023 106.905 120.418C107.087 119.942 107.105 120.836 106.845 120.114L108.359 119.463C108.369 119.494 108.357 119.472 108.356 119.479L108.177 118.993C110.084 117.854 108.091 118.175 110.351 116.021C110.16 115.927 110.149 116.069 109.555 116.281C109.684 115.226 109.933 115.276 110.188 114.382C109.783 115.019 110.052 114.816 109.441 115.022C109.13 114.149 109.26 114.397 109.564 113.536C109.038 113.951 109.577 113.812 108.705 114.186C108.336 113.634 107.985 113.299 107.308 113.302L107.5 111.452C107.039 111.971 106.82 112.92 106.779 112.804C106.768 112.775 106.723 112.888 106.696 112.929L106.278 112.031C106.034 112.462 105.967 112.803 105.739 113.226L104.613 113.651L104.305 113.224C104.155 113.977 103.996 113.933 103.318 114.064C101.847 114.348 99.8527 114.556 98.9609 113.163L99.1468 113.897C97.6982 114.088 98.4452 114.187 97.5558 113.541C97.9535 114.111 97.7758 113.798 97.9871 114.425L97.1951 114.775C97.0663 114.327 97.3025 114.444 97.0208 114.226L96.6509 115.036L95.8217 114.583C96.1362 115.183 96.2165 114.939 96.3499 115.645L95.7255 115.452C96.4549 115.917 96.3453 116.429 96.5656 117.399L95.3249 117.168C96.3664 117.781 96.3881 117.313 97.2507 118.339C97.1724 118.906 97.4572 118.636 96.9601 118.855C98.0785 119.043 97.7625 119.263 98.4965 119.847C98.9483 120.206 99.5252 120.404 100.207 120.558ZM31.7653 115.252C31.8023 115.953 31.8223 117.458 32.065 118.015C31.1851 118.127 31.1875 118.234 30.8836 118.927C30.5969 119.58 30.5966 119.795 30.5857 120.533C31.8424 122.667 30.8369 123.806 31.4055 125.292C31.6874 126.029 33.041 127.532 33.5294 128.492L33.8289 127.655C34.1719 126.135 34.0319 125.938 34.4127 124.906C35.0089 123.29 34.2543 122.723 33.9355 121.368C33.9026 121.313 33.8376 121.251 33.8211 121.215L33.7019 120.62C34.053 120.511 34.0085 120.559 34.5517 120.409L34.3907 121.112C34.3491 122.127 34.4274 122.62 35.0176 123.229C35.6979 122.728 35.3647 122.541 36.0999 122.185C36.0361 122.411 34.2937 125.138 34.2159 128.629L35.3834 127.962C35.2008 129.25 34.4004 128.583 34.0104 130.07C33.3577 132.558 34.6404 133.205 35.0538 133.74C35.5579 134.391 36.082 135.616 37.0024 136.625C36.9579 135.775 36.7536 135.096 36.3806 134.554L35.8308 133.969C35.6899 133.703 35.6515 133.477 35.5627 133.197C35.3754 132.603 35.1222 132.121 35.0277 131.528C36.0595 132.092 35.6826 133.283 36.6649 134.208C36.6719 131.438 36.156 132.075 35.3091 130.588C37.0401 130.03 35.5105 130.11 36.932 132.412C37.6851 131.132 36.9953 130.27 36.7739 129.146C36.8295 129.181 36.9093 129.175 36.9349 129.259L37.9082 129.818L37.5059 131.686L37.9334 131.873C37.8853 132.576 38.0748 132.061 37.6984 132.535C37.4965 132.79 37.5714 132.579 37.2033 132.917L37.1629 134.627C37.2632 135.828 37.3292 136.961 38.0934 137.658C38.7623 138.276 40.2109 139.078 41.2932 139.239C41.1216 137.848 40.4157 138.224 39.327 136.768C38.9122 136.214 37.7286 134.74 37.5562 134.303C38.7904 134.997 39.1286 136.781 40.693 137.346L40.4481 135.299C41.2744 137.235 41.4149 138.6 42.6884 140.097C43.4279 140.966 45.6651 142.553 47.5535 142.388C47.6584 140.835 45.8571 139.376 44.5978 137.961C44.4697 137.817 44.2184 137.72 44.3292 137.255C44.5907 137.268 44.4007 137.034 44.9858 137.789C45.7197 138.735 46.2231 139.631 47.0683 140.025C46.8898 138.075 45.6221 134.289 43.3866 133.554C42.3637 133.218 41.5512 133.35 41.0742 132.363C41.9651 132.783 41.7819 132.946 43.0363 133.063C42.6036 131.981 41.9873 131.878 41.7685 130.978C42.0117 131.37 42.3809 131.649 42.7273 131.964L43.1456 131.116C43.7874 132.257 43.1311 132.503 44.1227 133.437C44.6319 133.916 45.2577 134.408 45.786 134.929L45.5131 133.041C45.5863 133.22 45.8948 132.557 45.8186 131.278C45.7727 130.508 45.5998 129.881 45.4833 129.198C46.789 130.375 45.5527 136.95 47.3139 138.157C47.6369 136.669 47.3905 135.699 47.7655 135.003C48.1124 136.444 47.8544 137.149 47.6407 138.471C47.5571 138.988 48.0556 140.902 48.2084 141.703C48.5123 143.296 51.619 144.293 53.3894 144.667C52.5689 141.89 51.6797 143.822 49.1831 138.829C50.6201 139.53 50.5089 141.607 52.251 142.298C52.1988 140.104 51.5238 138.637 50.0087 137.961C50.0472 137.922 50.1209 137.814 50.1315 137.851C50.1349 137.862 50.3474 137.797 50.2613 137.21C50.2106 136.865 50.1646 137.164 50.2531 136.972C51.0395 137.974 51.1858 138.939 52.2672 139.19C52.3242 138.017 52.9951 133.952 52.7144 133.227C52.4807 132.622 51.9159 132.38 51.6043 131.231C51.2932 130.084 51.5663 129.429 50.9259 128.564C51.1251 128.247 50.8609 128.48 51.3845 128.346C51.3557 129.46 51.9132 132.464 52.8764 132.622L53.2136 130.655C52.7978 129.958 52.5331 129.847 52.331 128.836C52.1448 128.706 52.0883 128.758 51.853 128.376C51.7218 128.162 51.6768 127.978 51.6007 127.768C51.4082 127.239 51.4085 127.33 51.7164 126.953L52.3719 127.785C51.891 126.66 52.5442 127.115 52.5527 127.107L52.8263 127.994C53.2146 127.112 52.7304 127.764 53.4506 127.382C53.3299 128.199 53.4759 128.049 52.9092 128.533C52.6477 129.504 52.7889 129.483 53.1984 130.216L53.5507 130.038C53.7612 128.339 53.6478 128.08 53.5893 126.405C53.629 126.446 53.6814 126.46 53.7017 126.534C53.7075 126.554 53.9171 126.74 53.9382 126.754C54.3175 127.016 53.7508 126.742 54.3494 126.959L54.1814 128.445C54.7253 127.838 54.963 127.201 55.393 126.955L55.1271 127.917L56.392 127.163C56.1338 127.991 55.7721 127.952 54.9632 128.479C54.0349 129.085 54.873 128.942 53.8485 130.104C53.6758 130.578 53.5042 130.99 53.3713 131.475C53.101 132.462 53.1694 132.553 53.3886 132.985C53.9478 132.639 54.0498 132.469 54.3738 131.871C54.4918 131.313 54.5157 130.604 54.6448 130.261C55.0101 129.288 55.4972 129.229 55.6715 129.137L54.8887 131.175C55.5183 130.782 55.9897 130.068 56.0363 128.893C56.3035 128.939 56.2807 128.949 56.6264 129.119C55.6275 131.342 56.0011 131.443 55.146 131.575C53.232 133.538 52.58 135.296 53.0067 138.607C54.2921 138.07 53.598 136.456 54.6308 135.257C54.3346 136.163 54.2138 135.907 54.2002 137.024C54.8329 136.671 54.7708 136.54 55.2156 136.185C55.0217 136.94 53.958 138.244 53.4791 138.898C52.544 140.175 52.3576 140.637 53.093 142.469C53.6062 143.746 53.6788 144.77 54.984 145.144C56.1582 145.48 57.2998 145.911 58.5794 145.942C58.033 144.449 56.5709 144.408 55.7245 143.591L56.961 143.905C56.6484 142.905 56.2788 142.874 56.0073 142.066L58.386 145.098C58.8864 145.618 60.8506 146.757 61.8921 146.9C61.6774 144.665 58.503 141.768 56.8687 141.14L57.13 141.028C57.4837 140.901 57.2942 141.53 57.4844 140.924C57.4972 140.883 57.558 140.911 57.6104 140.891L56.9262 138.962C58.0765 139.912 57.6943 141.925 60.3504 143.033C60.2827 141.182 59.5676 140.886 59.0597 139.412C60.5078 140.334 60.5939 144.103 62.1839 145.174L61.6902 142.854C63.0496 144.155 62.0884 145.843 62.9474 147.445C63.4758 148.431 64.5569 149.914 65.6939 150.048C66.7361 147.609 65.6599 145.539 64.5683 143.719C63.8445 142.512 62.3512 141.78 60.8192 139.192C62.2806 139.814 61.6334 140.6 63.325 141.41C63.1386 139.509 62.5366 138.82 62.3376 137.297C62.5216 137.471 62.488 137.377 62.6717 137.663C63.8977 139.567 62.8057 140.859 65.3187 143.718L65.7292 139.992L66.1122 141.037C66.7182 140.091 66.7647 139.335 67.4051 138.783C67.0664 140.533 66.1059 141.046 65.8559 142.486C65.5187 144.429 65.5119 145.628 66.9767 146.336C68.0247 145.969 68.123 145.509 68.7216 144.729C69.5201 143.688 69.0997 143.652 69.0596 142.342C69.5596 143.122 69.3234 142.816 69.6945 143.002C70.9912 141.371 70.609 139.718 71.3667 138.09L71.8673 138.91C72.1321 138.388 72.2822 137.891 72.9924 137.557C72.3196 139.062 71.0604 139.764 70.8261 141.838C71.9094 141.332 72.1257 140.717 72.983 140.263C72.4444 141.633 69.8806 142.618 69.296 145.04C72.7732 145.047 73.183 143.793 74.4302 143.457C73.0988 145.383 71.238 144.865 69.1531 145.81C65.646 147.4 64.2354 154.139 71.7411 152.515C73.0614 152.229 76.2871 151.027 76.7133 149.978C74.5962 149.997 74.3316 149.967 72.3709 150.193L74.1915 149.468C73.8253 148.412 73.4796 148.784 72.2918 148.332C71.6546 148.089 70.852 147.699 70.3699 147.351L73.1912 148.119L72.4297 147.02C73.2349 147.446 73.9781 148.765 74.9001 149.634C76.2324 149.687 77.3341 149.749 78.3746 149.157C78.7348 148.953 79.1405 148.744 79.6112 148.51C79.8445 148.394 80.0848 148.294 80.3021 148.162C80.8738 147.815 80.582 147.971 80.7493 147.796C79.9709 147.165 79.2749 146.31 78.0652 146.294C76.8194 146.278 75.3631 146.178 74.0588 146.07C75.6152 145.267 76.809 146.552 78.4355 145.705C78.3164 144.535 77.9177 144.463 77.036 144.004C76.487 143.719 75.9194 143.189 75.4745 142.903C76.5752 142.893 76.26 143.741 77.9119 143.883L77.0491 140.752C77.8435 141.744 77.3136 141.94 78.0562 142.593C78.4172 141.908 78.4339 141.025 78.8603 140.314C78.855 140.677 77.1871 145.298 79.7287 146.474C80.3616 146.03 80.5197 145.062 80.7148 144.193C81.1528 142.245 80.187 142.497 80.5649 141.633C80.8623 141.943 80.6486 141.583 80.9416 142.202C81.0948 142.527 80.9577 142.407 81.192 142.828L81.623 142.364C81.7944 142.18 81.7492 142.2 81.9801 142.024C81.6929 143.525 79.4347 146.092 81.4009 147.355C82.3776 147.641 87.1636 144.535 86.1289 138.531C86.3851 138.082 86.3399 137.203 86.4011 136.505L90.2437 136.448C90.0941 138.882 89.6955 138.043 90.962 140.117C91.6063 141.172 92.4877 142.186 93.2928 142.803C96.9278 145.591 99.7606 145.152 100.606 145.496C100.026 145.803 98.7636 145.701 97.9168 145.751C97.9344 147.169 99.076 147.26 99.8897 147.916C100.318 148.262 100.582 148.551 101.008 148.889L102.009 149.57C102.247 149.744 102.196 149.717 102.349 149.887C100.701 149.533 100.245 148.091 98.805 147.86C98.9254 148.629 99.2919 149.066 99.5704 149.707C97.5737 148.519 98.6038 144.733 95.3278 145.215C95.2676 145.952 95.8585 147.814 96.157 148.517C97.91 152.647 105.234 152.328 106.103 152.006C107.116 151.63 107.542 150.257 107.299 148.845C106.731 145.533 103.798 145.239 102.157 144.82C100.958 144.514 99.8007 143.947 99.4016 143.058C101.323 143.987 101.458 144.624 104.442 144.678C103.806 142.123 101.37 141.425 100.782 139.848C101.655 140.344 101.914 141.085 102.894 141.48C102.831 139.737 101.414 138.454 100.718 137.18C101.356 137.419 101.524 137.922 102 138.483C102.356 138.412 101.945 138.824 102.416 138.057C102.434 138.027 102.462 137.949 102.491 137.898C102.592 138.577 103.423 142.92 104.276 142.578L104.672 142.244C104.208 145.721 108.922 148.315 107.84 141.98C107.631 140.751 106.621 139.935 106.296 138.372C106.889 138.759 107.183 139.876 107.562 140.644C108.023 139.989 107.582 140.204 107.878 139.472C108.187 140.48 107.951 142.611 108.577 143.294C110.661 140.535 109.932 139.155 111.012 137.461C111.204 137.161 111.17 137.253 111.355 137.067C111.165 138.592 110.473 139.309 110.412 141.083C111.612 140.603 111.787 139.362 112.98 138.749C112.035 140.927 106.215 144.283 107.985 149.652C109.244 149.627 110.444 147.77 110.913 146.8C111.714 145.143 110.682 143.967 112.128 142.149L111.51 144.732C112.481 144.249 114.188 140.542 114.415 138.601C114.644 136.638 114.079 136.196 113.076 135.352C112.536 134.898 112.53 134.712 111.934 134.201C111.023 133.418 111.209 133.988 110.191 133.581L110.957 133.411C110.974 133.407 111.03 133.392 111.061 133.372C110.429 132.604 110.037 132.531 109.168 132.117C109.419 131.976 108.654 131.576 109.839 132.093C109.899 132.12 110.346 132.42 110.483 132.51C112.586 133.885 112.593 135.238 114.397 135.404C114.557 135.118 114.791 134.704 114.913 134.278C115.012 133.93 114.982 133.84 115.042 133.569L115.185 133.068C115.205 133.025 115.241 132.976 115.265 132.936C116.034 131.638 115.943 132.471 115.871 130.248C116.222 130.646 116.168 129.535 116.051 131.903C117.017 131.518 117.195 130.763 117.245 129.675C117.386 130.709 117.141 129.957 117.674 130.445C117.144 131.077 117.202 130.834 116.861 131.49L117.614 131.592C117.653 131.601 117.72 131.62 117.754 131.632C117.791 131.645 117.858 131.7 117.888 131.714C117.919 131.728 117.993 131.771 118.018 131.821C115.67 132.025 115.888 132.228 115.198 134.348C114.222 137.347 115.222 136.299 114.975 138.799C114.678 141.806 112.678 144 112.217 146.464C113.413 146.331 114.759 145.207 115.382 144.568C116.163 143.769 116.753 142.379 117.717 141.749L116.77 143.516L118.011 143.178C117.155 144.167 115.749 144.204 115.14 145.572C116.768 145.43 117.511 145.309 118.252 144.301C119.168 143.053 118.654 142.377 118.684 140.688C118.739 140.654 118.815 140.621 118.856 140.596C118.895 140.571 118.971 140.53 119.016 140.498C119.059 140.469 119.122 140.439 119.166 140.405C119.632 140.044 119.658 139.221 120.179 138.914C119.951 139.882 118.493 141.619 119.447 142.642C119.722 142.314 121.218 139.805 121.317 139.399C121.518 138.574 121.265 137.846 121.36 136.937C121.42 136.361 121.571 135.582 121.698 134.941L121.687 138.011C122.25 137.667 122.575 136.927 122.695 136.217C122.808 138.612 120.52 140.793 119.945 142.929C122.554 142.527 122.418 139.707 123.663 138.603C123.508 139.166 123.191 139.561 123.111 139.985C122.996 140.59 123.282 140.929 123.293 140.861C123.297 140.833 123.305 140.945 123.3 140.987C122.581 141.809 118.966 144.13 118.679 144.791C120.42 144.366 124.276 143.239 125.144 142.206C125.32 141.996 126.118 139.023 126.143 138.598C126.212 137.426 125.393 135.744 126.143 134.571L126.306 137.174C126.456 137.81 126.381 137.469 126.555 137.714C128.125 135.827 126.95 130.091 128.237 128.814C128.099 130.237 127.847 130.851 128.015 132.499C128.779 131.612 128.858 129.627 129.929 128.962C129.464 130.326 127.951 133.127 127.864 134.563C128.497 134.248 128.122 134.3 128.675 133.821C130.207 132.494 129.867 132.531 130.572 130.686L130.729 131.259C130.931 131.799 130.633 131.31 130.971 131.686L131.95 130.689C131.562 131.567 130.974 131.758 130.777 132.674C131.727 132.641 131.775 132.34 132.608 132.058C132.091 132.838 131.02 132.886 130.168 133.238C128.121 134.083 126.897 137.241 126.653 139.585C127.358 139.398 127.619 138.831 128.061 138.226C129.074 136.837 128.829 136.863 129.634 136.947C128.825 137.895 125.781 140.547 126.305 141.979C127.24 142.147 128.057 141.669 128.861 141.309C132.341 139.747 131.657 137.371 133.295 135.016L132.978 136.974C134.769 136.349 134.57 134.957 136.185 133.99C135.537 135.234 134.34 136.713 133.232 137.537C132.628 137.986 132.603 137.892 132.429 138.834C134.341 138.636 136.885 136.864 136.804 134.843C136.764 133.869 137.107 131.477 136.908 130.964C136.597 130.166 135.725 129.338 135.355 128.58C135.737 128.789 136.107 128.985 136.31 129.282C136.502 129.564 136.345 129.53 136.559 129.84C136.869 130.287 136.582 130.004 137.128 130.294C137.076 129.221 137.26 127.754 136.777 126.909C136.31 126.093 135.869 125.718 135.518 124.539C135.741 124.726 135.647 124.532 135.969 125.003L136.616 126.201C136.912 125.772 136.796 125.328 136.652 124.724C137.341 126.762 137.313 127.788 137.498 130.169C138.375 129.699 139.164 125.453 139.256 124.159C139.423 121.805 138.068 120.781 136.51 119.432L137.676 120.013C137.507 118.696 136.787 118.211 136.702 117.19C136.87 117.69 137.339 118.287 137.669 118.915C138.141 119.811 137.851 120.393 138.681 120.831C138.73 119.86 138.737 118.772 138.232 117.945C138.157 117.822 138.045 117.674 137.954 117.525C137.93 117.485 137.883 117.447 137.865 117.353C137.847 117.255 137.804 117.234 137.776 117.173C138.544 117.368 138.15 117.476 138.667 117.944C138.915 118.168 138.637 117.97 138.996 118.08L139.246 118.111C138.882 119.19 138.706 121.448 139.516 122.27C140.77 121.107 140.456 119.491 140.594 117.886C140.894 118.479 140.732 118.679 140.81 119.477C141.354 119.037 141.898 117.251 142.383 116.551L141.561 118.768C141.935 118.526 141.603 118.758 141.972 118.469L142.564 118.018C142.305 118.768 141.34 119.084 140.865 120.555C141.684 120.53 142.217 119.781 143.112 119.558C142.941 119.771 143.002 119.694 142.781 119.906C142.751 119.935 142.458 120.199 142.454 120.202L141.644 120.655C139.114 121.426 140.056 125.757 138.431 129.965C137.613 132.084 138.126 131.347 137.706 132.571C137.544 133.045 137.512 132.908 137.394 133.581H137.887C137.709 134.491 137.446 134.417 137.688 135.403C138.154 135.115 138.021 135.012 138.268 134.639C138.579 134.171 138.45 134.404 138.876 133.991C141.436 131.507 139.398 132.706 140.163 129.853C140.458 128.752 140.443 128.038 140.604 126.988C140.447 126.771 140.435 126.975 140.261 126.34C140.188 126.076 140.241 125.965 140.246 125.726C140.837 125.913 140.477 125.677 140.721 126.444C140.772 126.204 140.734 126.171 140.856 125.949C141.205 125.31 140.835 125.898 141.317 125.466C141.347 126.403 141.477 126.44 140.941 127.103L140.784 129.136C141.621 128.438 141.318 127.261 142.182 126.479C141.929 127.377 141.608 127.648 141.632 128.803L143.112 127.755C142.284 129.268 139.123 129.654 140.77 132.291C141.967 132.116 142.683 131.18 143.204 130.163C144.573 127.492 143.544 130.469 144.512 126.811C144.732 127.252 144.681 127.328 144.6 128.038L145.335 127.921C144.695 128.667 143.728 129.421 143.489 130.621C145.155 130.215 146.319 129.186 146.997 128.975C146.531 129.478 145.995 129.771 145.505 130.236C146.275 130.835 146.318 130.655 147.758 130.529C147.802 130.526 147.869 130.516 147.906 130.515L148.289 130.604C144.499 132.016 146.939 128.594 140.916 132.895C139.16 134.149 139.52 134.14 138.403 135.388C137.607 136.277 136.604 136.774 135.861 137.807L136.507 138.308C136.53 138.265 136.605 138.38 136.652 138.419C134.787 138.562 131.768 139.636 131.088 140.897C131.273 141.029 131.234 141.041 131.579 141.162C131.646 141.185 131.862 141.227 131.933 141.243C134.93 141.909 135.612 140.524 136.876 140.379C137.924 140.259 137.053 140.317 137.382 140.479C136.788 140.866 135.553 140.983 135.252 141.61C136.703 141.948 138.621 141.663 139.694 142.368L136.445 142.47C136.44 142.443 136.401 142.523 136.38 142.55C135.453 142.02 135.197 141.993 133.871 141.973C134.397 143.389 135.671 143.445 136.332 145.144L134.784 143.9C134.702 144.606 134.815 145.202 134.52 145.743C134.447 144.199 134.62 143.164 133.626 142.393C131.284 140.577 126.348 142.634 124.21 143.778C125.611 144.292 126.493 143.414 128.426 143.559C127.61 144.187 127.608 143.837 126.708 143.979C126.2 144.058 125.941 144.168 125.628 144.451C126.839 145.337 127.65 145.067 128.366 145.456C127.185 146.077 126.69 145.485 125.636 145.134L125.932 146.315C125.453 145.847 125.517 145.59 125.013 144.935C124.569 144.36 124.319 144.407 123.922 143.917L117.265 146.066C117.79 146.818 117.846 146.503 118.403 147.003C119.884 147.364 121.451 148.199 123.202 148.269C124.44 148.318 126.903 147.602 128.528 147.516C127.796 148.213 127.837 147.766 127.283 148.214C128.242 149.057 128.541 148.441 129.403 148.841C127.893 149.503 127.089 147.876 124.733 148.652C125.594 150.063 127.58 149.929 128.565 151.069L127.418 150.852C127.502 152.041 127.817 152.035 128.067 153.038C127.53 152.64 127.571 152.612 127.173 151.756C126.813 150.983 126.874 150.781 126.297 150.358C125.575 149.827 124.232 148.999 123.171 148.78C123.441 150.456 125.001 151.681 125.363 153.106C125.314 153.067 125.242 152.945 125.219 152.985L124.862 152.616C124.645 152.376 124.741 152.43 124.49 152.212L124.483 153.644C124.043 153.353 124.111 152.382 123.967 151.814C123.569 150.247 122.614 148.122 120.616 148.514C120.758 149.972 122.366 151.135 122.764 153.033C121.547 152.233 119.979 147.967 119.402 147.621L118.426 147.083C116.862 147.104 117.337 146.274 115.217 146.705C113.797 146.994 113.406 147.015 112.249 147.71C111.331 148.262 108.42 150.715 108.124 151.559C108.723 151.949 109.62 152.107 110.542 151.833C111.863 151.44 112.281 148.787 115.038 148.06C114.727 148.773 114.131 148.6 113.079 149.581C112.629 150 111.845 150.892 111.744 151.7C112.624 151.693 113.432 151.594 114.19 151.311C115.13 150.96 115.126 150.669 115.894 150.243C115.33 151.593 114.193 151.872 112.341 152.16C112.872 153.186 113.112 152.937 113.631 153.626C111.792 152.943 112.699 152.143 109.622 152.38C108.75 152.447 106.534 152.467 105.455 153.224C106.336 153.665 107.556 154.822 108.252 154.981C109.345 155.231 110.845 154.295 111.825 154.729L111.083 155.112C111.285 155.303 111.158 155.243 111.46 155.408C111.729 155.555 111.672 155.479 111.914 155.579C112.403 155.782 112.062 155.538 112.485 155.903C111.412 155.719 110.321 154.712 109.204 155.531C109.663 155.962 111.608 156.94 112.347 157.034C113.363 157.164 115.025 156.574 116.208 157.088L113.623 157.241C113.856 157.721 113.453 157.339 114.41 157.881L114.683 158.057C112.944 157.907 110.598 156.656 109.076 156.067C109.105 157.857 112.996 158.736 113.337 159.201L111.512 158.869L112.123 159.712C111.095 159.208 110.24 158.287 109.582 157.449C109.188 156.948 107.687 155.346 107.049 155.073L107.661 156.928C106.413 155.594 106.957 153.777 104.083 153.172C103.015 152.947 101.928 152.917 100.805 152.66C99.8171 152.435 99.0303 152.032 98.1846 151.787C99.727 155.162 102.629 154.895 104.139 156.977C101.642 156.595 99.7084 153.9 98.5397 153.678L100.111 157.464L99.0039 156.431C98.4899 157.835 98.9377 158.847 98.9558 160.355C98.1022 159.336 98.5808 157.203 98.5586 155.731C98.5032 152.099 96.861 151.381 96.371 150.585C95.7528 149.581 95.0179 146.526 94.1645 145.538C93.2826 154.494 95.2335 152.55 97.6136 154.693L95.9948 154.045C96.2651 155.508 97.0738 155.138 97.8604 156.153C97.4937 155.991 97.5498 155.929 97.2082 155.864C96.0441 155.644 97.4644 156.143 96.6899 155.854C96.1711 155.66 96.6618 155.504 95.7876 155.118L95.8829 156.801C95.3317 156.112 95.7721 155.725 95.5681 154.049L94.2716 153.069L93.9795 154.194L93.7347 158.003C93.4755 157.544 93.1634 156.584 93.1762 156.243C93.1929 155.796 93.5209 154.763 93.5741 154.033C92.1171 154.862 92.4645 155.308 92.4307 156.97C91.6981 156.233 92.7026 156.768 91.5466 156.158L92.015 155.106C91.788 154.564 91.6394 154.831 91.4525 154.349C92.3671 154.31 92.7 154.077 93.2367 153.677C93.8865 153.016 93.7245 152.18 93.5425 151.329C92.7461 151.684 92.6301 152.193 92.2053 152.355C91.6196 152.579 92.1045 152.13 91.2214 152.59C90.9912 152.71 91.0732 152.78 90.5774 153.022C92.0327 150.327 93.9225 154.336 93.3624 146.125C93.1929 143.641 93.1902 143.818 91.7579 142.662C90.8605 141.938 90.0382 141.136 89.1358 140.592C85.354 147.483 88.2909 149.881 88.5445 153.439C88.6997 155.615 89.6193 156.855 91.3191 158.783C92.3753 159.981 94.7205 161.014 95.8094 162.181C94.1253 161.622 93.1455 160.333 91.5751 159.673C91.5876 161.438 92.4763 163.466 91.8533 164.716C91.5727 164.27 91.68 164.215 91.681 163.908C91.6892 161.684 91.6524 163.168 91.2999 161.54C91.0659 160.46 91.3324 159.364 90.5991 158.73C89.8011 159.682 89.9688 161.534 89.4261 162.75C89.1353 160.382 91.5845 157.722 88.9387 157.251C88.3875 158.125 88.5529 159.335 88.4903 160.548C87.1621 158.135 88.8363 153.214 86.6271 150.256C86.3967 150.442 86.5144 150.281 86.2874 150.583L85.2003 152.859C84.8599 153.792 84.6295 154.682 84.2869 155.688C83.184 158.923 86.0392 158.401 86.6286 160.07C85.8255 159.651 85.5571 159.067 84.3259 158.819C84.4569 160.424 85.1053 161.161 85.3516 162.414C84.4376 161.707 85.2058 161.661 84.3275 160.924C83.2648 161.624 83.9966 161.695 83.023 162.321C83.4161 160.886 84.5009 160.048 83.4374 158.324L82.8659 161.237C82.1474 160.028 83.8958 156.172 83.479 154.693C81.9139 155.081 80.174 156.748 79.2476 157.763C77.9919 159.138 77.9194 161.585 76.3514 162.209C77.9525 159.377 77.8058 158.842 78.3316 157.911C80.6447 153.812 84.3104 155.824 85.6306 146.709C84.6421 147.196 83.6364 147.931 82.5564 148.541C81.5164 149.129 80.5189 149.609 79.4175 150.209C75.2577 152.477 76.6057 151.675 76.2801 156.338L75.7567 154.168C75.3986 154.63 74.1628 159.53 73.4557 161.436L73.2961 160.503C73.2937 160.451 73.2681 160.431 73.2482 160.398C72.7795 160.799 72.236 161.342 71.7731 161.743C72.2672 160.277 74.2275 160.064 74.5766 156.273C72.9129 157.337 71.8107 160.536 69.3444 161.744C69.9809 161.141 70.2894 161.082 70.6426 160.054C69.5023 160.28 69.0659 160.893 67.9724 161.168C69.0572 160.06 70.9143 159.752 71.7322 159.034C72.1751 158.644 73.8105 156.295 74.0861 155.694C72.281 155.791 72.2036 156.972 70.9544 157.925C71.2941 157.099 71.4602 157.239 71.9962 156.634L71.1363 156.19C74.4176 155.015 74.9197 155.22 75.9271 152.165C73.7663 152.861 72.9216 154.234 68.5306 153.593C64.0855 152.943 64.5303 156.128 65.5873 157.519L64.7668 156.478C64.7501 156.405 64.6856 156.407 64.6409 156.373L64.4203 159.507C64.2958 159.058 64.5129 159.392 64.175 158.872L63.4604 160.082C63.6468 158.536 64.8969 158.59 64.1658 156.898C63.5679 157.451 62.9761 158.488 62.5709 159.271C62.4438 159.059 62.2864 159.337 62.6739 158.385C62.4256 158.417 61.9726 158.529 61.8271 158.544C61.3929 158.589 61.476 158.527 61.3506 158.457C62.6118 157.798 62.4102 158.744 63.4591 157.24C63.8822 156.634 64.394 156.135 64.4648 155.063L64.0642 154.851C63.5955 155.616 63.4166 155.572 62.5414 156.515L61.8384 157.042C62.063 156.241 62.3004 155.863 62.8649 155.611C61.7961 155.976 61.1509 156.71 59.9129 156.763C60.2794 156.36 62.5219 155.184 63.2368 154.903C62.4866 154.029 62.0207 155.007 61.1506 154.276C61.8184 153.953 63.4901 154.404 64.4672 154.305L66.0464 153.231C65.3813 152.841 63.5933 152.59 62.6251 152.705C61.55 152.832 61.0689 153.645 60.0794 154.026C60.554 153.359 61.1605 153.381 61.3646 152.567C59.6745 152.153 58.2837 151.889 57.8524 150.592C58.4196 150.884 59.651 152.341 62.0033 152.019C61.7963 150.35 59.1683 149.006 58.6821 148.632C58.9802 148.474 58.1761 148.377 59.1146 148.56C59.9781 148.727 61.2788 150.189 61.8038 150.876C62.7701 152.14 63.7635 152.899 65.6427 151.938C65.047 150.942 62.4658 148.604 61.2118 147.92C59.6418 147.063 56.3219 146.436 55.269 147.738C53.2864 148.263 54.3862 148.371 52.1204 151.749C51.6026 152.521 51.6347 152.82 51.0257 153.351C51.4536 151.253 53.013 150.349 53.1501 148.814C49.6294 148.862 50.1845 152.718 49.4169 154.003C49.1212 153.49 49.268 153.33 49.2498 152.627C48.7086 153.015 48.8829 153.139 48.3317 153.526C48.7061 152.112 50.2444 150.931 50.548 149.176C49.193 149.492 48.5002 150.055 47.536 150.728C46.3696 151.543 46.6858 152.647 45.7002 153.387L46.3348 151.571C46.256 151.526 46.181 151.432 46.1549 151.476L45.33 151.095C46.6208 150.715 48.5135 149.952 48.9116 149.05C46.8821 148.08 46.0775 149.866 44.2905 149.259C44.8337 148.927 45.5437 149.185 46.4926 148.677L45.2962 147.916C46.9126 148.013 49.2929 148.683 50.4681 148.646C52.1806 148.593 53.6679 147.749 55.1271 147.483C55.2291 147.386 56.1166 146.983 56.4222 146.542C54.5904 145.547 51.5325 145.076 49.8668 144.243C49.2566 145.139 48.9003 145.003 48.5906 146.01L48.2422 145.656C47.5839 145.158 48.7076 146.086 46.1399 145.955C46.8497 145.321 46.6791 145.639 47.4321 145.376C47.7873 145.253 48.0411 145.065 48.3551 144.869C47.4116 143.968 46.4803 144.632 45.7466 144.242C47.1865 143.277 49.324 145.272 49.4686 143.929C47.4925 144.004 45.4609 142.404 44.1082 142.71C41.235 143.358 42.3887 143.872 41.0921 145.326C40.6263 145.848 40.0516 146.581 39.8316 147.283C39.5497 148.795 38.6995 148.05 38.7452 147.54C39.1489 146.663 38.7938 147.276 39.4281 146.975C39.7828 146.714 40.2593 146.126 40.4048 145.561C39.6205 145.943 39.4122 146.453 38.5699 146.911C39.0694 146.091 39.3273 146.383 39.741 145.462L38.4355 145.577C39.8865 144.742 41.668 145.829 41.6469 143.264C39.2558 143.111 37.6834 145.247 36.8808 145.733L37.4153 144.638C37.4208 144.623 37.4523 144.584 37.4562 144.535C37.46 144.486 37.4818 144.464 37.5246 144.48L39.1731 143.642C38.9678 143.457 39.1525 143.509 38.8085 143.359C38.545 143.244 38.6492 143.293 38.3265 143.251C37.9735 143.205 37.4124 143.209 37.0215 143.121L37.8347 142.798C37.5545 142.513 37.5357 142.517 37.2028 142.246L36.713 141.825C36.6922 141.749 36.6306 141.745 36.5895 141.704C38.3224 142.195 37.6174 143.329 40.2215 143.017C41.3894 142.877 43.2285 142.798 43.9097 142.152C43.0099 141.467 42.6427 141.487 42.1143 140.678C40.5134 138.227 36.3779 139.72 34.6475 138.453C36.2588 138.561 37.2739 139.221 38.0279 137.947C35.7235 136.928 35.0137 133.981 34.1565 133.643C33.4336 133.559 31.7505 133.972 31.1341 134.328C30.4003 134.753 30.2635 135.646 29.3313 136.249C29.7437 135.096 30.4557 135.374 30.2664 133.979C31.1481 133.865 30.9853 133.975 31.4418 133.515L30.4107 132.751C31.7965 133.097 31.8963 133.897 33.5076 132.954C33.2929 132.001 33.0983 132.32 32.4219 131.759C31.1901 130.738 31.7633 129.956 29.5576 131.277C29.3883 130.943 29.3871 131.499 29.5479 131.028L26.8151 131.087C26.8615 131.051 27.0477 130.933 27.0963 130.898C27.2754 130.769 27.2732 131.033 27.3864 130.686C27.4132 130.603 27.4908 130.614 27.5372 130.577L26.5296 130.236C27.0368 129.975 27.3368 130.315 27.8455 130.475C29.1437 130.885 29.2058 130.241 29.2116 130.236C28.6529 129.73 27.8334 129.477 27.053 129.199L27.3131 129.071C27.3385 129.063 27.4098 129.043 27.4357 129.036L27.8141 128.982C27.2636 127.164 27.4862 128.071 27.6513 127.764C28.1179 128.651 27.9202 129.043 28.9358 129.602C29.5375 129.933 30.272 130.363 31.032 130.027C30.6252 129.161 29.5827 128.868 29.0076 128.063L30.2152 128.624C29.7462 127.638 29.1722 127.275 28.9605 126.277C29.787 127.021 30.6145 128.604 31.0209 129.001C31.7396 127.822 30.694 127.624 31.341 126.969C31.4036 128.031 31.3168 129.23 31.8037 130.091C32.1535 130.711 32.7898 131.551 33.2844 131.835C33.377 129.055 33.8429 130.226 31.5571 126.767C29.4812 123.626 28.4687 125.476 26.9561 125.688L27.7256 125.023C27.442 125.042 26.8729 125.116 26.6213 125.064L24.4162 124.077C25.5196 123.762 26.3662 124.953 28.4607 124.549C27.9835 123.542 26.4921 123.475 25.5778 123.014C26.0277 122.556 25.1136 122.519 26.254 122.837C26.6062 122.935 26.3594 123.005 26.9778 123.123C26.7453 122.261 25.8853 121.926 25.4637 121.071C26.9138 121.785 27.4229 123.662 29.6806 124.53C27.6516 122.1 27.3644 120.581 25.9073 120.198L26.3795 119.89C25.977 119.266 24.8499 118.398 24.181 117.448C23.3012 117.572 23.6191 117.44 23.1296 117.938L21.0433 116.07C22.0083 116.433 22.2143 117.173 23.6619 117.06C22.2288 114.031 21.2473 113.642 20.9763 113.02L22.1795 113.641L22.009 112.912C22.2462 112.471 21.5884 112.438 22.4841 112.61C22.531 113.229 22.4474 113.588 22.7854 113.992C22.753 115.478 24.5151 117.787 25.5084 118.24C25.2333 116.529 23.8125 115.145 23.7359 112.896C24.0458 113.48 23.871 113.668 24.4672 113.882C24.53 113.032 24.3753 112.646 24.6828 112.011C24.7191 112.907 24.5859 114.952 24.8042 115.544C24.9524 115.946 25.785 117.805 26.122 118.035C26.5286 116.615 25.8696 116.18 25.5996 115.01C26.135 115.56 25.727 115.252 26.0081 115.763L26.8412 116.462L26.2373 118.738C27.037 119.799 27.6105 120.602 28.3541 121.831C29.4299 123.609 30.0836 123.715 30.5236 124.44L30.7685 122.71C30.3498 122.204 30.1201 122.055 29.7577 121.68C30.2971 121.896 30.1907 121.948 30.7968 122.034L29.4091 119.423C29.8165 119.64 29.5999 119.446 29.8373 119.782C30.4661 119.15 30.1433 118.685 30.5147 117.382C30.9295 117.53 30.6592 117.958 31.0398 117.949C31.3823 117.371 31.2339 118.255 31.1014 117.598C31.0112 117.152 30.6907 117.194 30.9025 116.451L31.7653 115.252ZM37.9334 131.873C38.2767 130.714 38.4045 130.889 39.211 130.582C38.9301 131.263 38.8068 131.668 37.9334 131.873ZM24.7513 110.751C25.0764 110.396 24.6608 110.639 25.1758 110.399C25.2631 110.358 25.7171 110.25 25.8479 110.224C26.2763 110.139 26.6031 110.096 27.0419 110.102L29.2314 110.078C29.5815 110.732 29.9318 110.905 30.3778 111.194C30.3665 113.165 30.4719 112.481 30.8925 114.099C31.0482 114.698 31.1679 114.854 30.9834 115.527L30.4905 116.522C30.4779 116.49 30.4274 116.607 30.3935 116.648C29.4186 115.622 28.466 114.77 27.4504 113.737C26.487 112.757 25.6506 111.504 24.7513 110.751ZM35.3834 127.962C35.5555 127.588 35.181 127.773 35.8582 127.515C35.5727 128.25 35.7619 127.786 35.3834 127.962ZM34.7698 117.62C35.6094 118.099 35.4348 118.384 35.6625 119.327C35.8211 119.983 36.0305 120.476 36.1006 121.228C35.3843 120.93 35.267 120.799 34.7173 120.202L34.7698 117.62ZM83.2641 105.933L85.4964 107.997C85.5622 106.251 84.9247 106.966 84.3205 105.758L85.3545 106.43C85.1277 105.303 84.9694 105.851 84.7656 105.016C85.1718 105.416 85.2044 105.542 85.7599 105.986C86.0892 108.336 85.3884 108.794 87.0454 110.411L88.0943 110.32C88.6138 109.675 88.6528 109.249 88.7761 108.256C87.9761 108.703 87.8912 108.756 86.9143 108.794C87.9323 107.943 88.7335 108.728 89.0028 106.499C89.1616 105.184 89.151 105.598 89.4498 105.22C89.4505 107.452 89.3045 108.734 88.6965 110.763C88.4775 111.493 87.928 112.435 88.0878 113.275C88.2696 114.232 89.0304 114.262 89.1116 115.324L88.1294 114.558C88.007 113.907 88.0426 113.772 87.6725 113.394C86.4978 114.509 87.1101 115.334 88.0672 116.028C87.0922 116.57 87.8765 115.882 87.4316 116.826C87.0724 117.589 87.6802 116.905 86.5882 117.508C86.938 116.565 87.2881 116.4 86.8258 115.198C86.1148 116.154 86.5447 117.124 85.2061 117.844C85.5262 116.846 86.5877 115.621 86.4572 114.305C85.8424 114.246 85.4408 114.468 85.1034 114.935C84.6237 115.598 84.9895 115.948 84.1839 116.39L84.7214 115.405L83.9388 115.221C83.9079 115.215 83.8363 115.205 83.7891 115.185L84.5224 114.747C84.8239 114.548 84.6239 114.73 84.8582 114.463L85.1638 114.002C86.6467 113.742 87.5939 113.475 87.9577 110.939C86.9868 110.937 86.1073 111.121 85.1647 111.114C83.9028 111.105 83.1749 110.724 82.7131 111.923L82.7796 114.237C82.4177 114.179 82.1738 114.47 82.4452 113.72C81.2142 115.913 82.1235 114.859 81.2293 115.3C81.7667 113.29 82.0756 113.27 82.3471 112.426L81.0353 113.054C81.1581 112.419 81.3837 112.249 81.865 111.923C82.5444 111.623 82.4972 111.752 82.5277 111.109L81.4599 111.135L79.9743 111.016C80.2784 110.307 79.9949 110.669 80.8004 110.473C80.2052 110.268 80.2187 110.417 79.9982 109.83C80.3345 109.891 80.4793 109.921 80.8427 110.058C81.4101 110.273 81.3054 110.225 81.6828 110.562C82.3278 110.81 83.0117 110.816 83.7248 110.586C83.0711 109.31 81.6037 109.783 80.9773 108.441C81.6879 108.725 81.6204 108.841 82.2371 109.202C82.2768 109.155 82.3469 109.022 82.3577 109.063L82.5279 108.623C83.1345 109.472 84.345 111.401 86.0119 110.385C86.0148 109.566 84.5534 107.549 84.094 107.278C83.3726 106.854 82.5504 107.056 81.8068 106.837L80.1418 105.537C81.3189 105.947 81.8111 106.867 83.1567 106.527L82.5506 105.661C81.6088 105.439 82.0843 105.291 80.9897 104.346L81.536 104.105L81.1862 103.139C81.8858 103.568 82.4308 104.767 82.7871 105.306L82.8584 103.946C83.3922 104.473 83.2368 105.079 83.2641 105.933ZM92.2703 91.8736L93.5258 92.1811C93.5983 92.4804 93.2775 92.3672 93.5739 92.7422C94.0231 93.3106 93.7687 92.602 94.1256 93.5347L92.3716 92.2471L92.37 93.6171C93.0437 93.6742 93.5531 93.6379 94.0988 94.0709L92.7222 94.697C92.5 94.1821 92.4744 94.1279 91.8845 93.9374L92.998 95.7994C92.4753 95.5383 92.8723 95.8222 92.5162 95.5035L91.8715 94.6975L92.1894 96.0462C91.4044 95.3389 91.806 95.0229 91.3531 93.9239C90.0941 90.8684 89.9031 90.2396 90.1662 85.8633C90.5307 86.4303 90.4683 86.701 90.5355 87.4696C91.0867 87.7408 91.5968 88.1404 92.281 88.3858C93.0966 88.6781 93.549 88.6392 93.9015 89.3395L92.0083 88.7586C92.5438 89.7991 92.4333 89.7919 93.301 90.3024C93.2659 90.3264 93.2045 90.3493 93.1861 90.3566C93.1687 90.3634 93.0969 90.3969 93.0771 90.4044L92.7814 90.4941C92.7727 90.4671 92.7208 90.5028 92.6944 90.5171C93.1789 91.1331 93.168 90.9632 93.3399 91.7472C91.7554 90.7231 92.9477 91.1633 91.98 89.7425C91.4017 88.8932 91.4051 88.4603 90.5263 87.9816C90.5546 90.2773 90.8648 91.0847 92.2703 91.8736ZM0.5 85.5C0.5 132.72 38.7797 171 86 171C133.22 171 171.5 132.72 171.5 85.5C171.5 38.2797 133.22 0 86 0C38.7797 0 0.5 38.2797 0.5 85.5Z" fill="#583131"/>
<path d="M155.172 191.231H155.097C154.667 191.91 154.12 192.407 153.457 192.722C152.794 193.02 152.065 193.169 151.27 193.169C150.723 193.169 150.184 193.095 149.654 192.946C149.141 192.797 148.677 192.573 148.262 192.275C147.865 191.976 147.542 191.603 147.293 191.156C147.044 190.709 146.92 190.187 146.92 189.59C146.92 188.944 147.036 188.397 147.268 187.95C147.5 187.486 147.807 187.105 148.188 186.807C148.585 186.492 149.041 186.243 149.555 186.061C150.068 185.879 150.599 185.746 151.145 185.663C151.709 185.564 152.272 185.506 152.836 185.489C153.399 185.456 153.929 185.44 154.426 185.44H155.172V185.116C155.172 184.371 154.915 183.816 154.401 183.451C153.888 183.07 153.233 182.879 152.438 182.879C151.808 182.879 151.22 182.995 150.673 183.227C150.126 183.443 149.654 183.741 149.257 184.122L147.691 182.556C148.353 181.877 149.124 181.388 150.002 181.09C150.897 180.792 151.817 180.643 152.761 180.643C153.606 180.643 154.319 180.742 154.899 180.941C155.478 181.123 155.959 181.363 156.34 181.662C156.721 181.96 157.011 182.308 157.21 182.706C157.425 183.087 157.575 183.476 157.657 183.874C157.757 184.271 157.815 184.661 157.831 185.042C157.848 185.406 157.856 185.729 157.856 186.011V192.871H155.172V191.231ZM154.998 187.527H154.377C153.962 187.527 153.498 187.544 152.985 187.577C152.471 187.61 151.982 187.693 151.518 187.826C151.071 187.942 150.69 188.124 150.375 188.372C150.06 188.604 149.903 188.936 149.903 189.367C149.903 189.648 149.961 189.889 150.077 190.087C150.209 190.27 150.375 190.427 150.574 190.56C150.773 190.692 150.996 190.792 151.245 190.858C151.493 190.908 151.742 190.932 151.991 190.932C153.018 190.932 153.772 190.692 154.252 190.212C154.749 189.715 154.998 189.043 154.998 188.198V187.527Z" fill="#583131"/>
<path d="M144.338 180.941V191.802C144.338 192.879 144.206 193.849 143.94 194.71C143.675 195.589 143.261 196.326 142.698 196.922C142.151 197.535 141.455 198.008 140.61 198.339C139.765 198.67 138.762 198.836 137.602 198.836C136.492 198.836 135.44 198.695 134.446 198.414C133.452 198.132 132.532 197.618 131.687 196.873L133.477 194.437C134.073 194.984 134.694 195.406 135.341 195.704C135.987 196.003 136.733 196.152 137.578 196.152C138.29 196.152 138.887 196.052 139.367 195.854C139.864 195.655 140.254 195.381 140.535 195.033C140.834 194.685 141.041 194.263 141.157 193.766C141.289 193.285 141.356 192.747 141.356 192.15V191.28H141.306C140.875 191.86 140.303 192.299 139.591 192.598C138.878 192.879 138.149 193.02 137.404 193.02C136.509 193.02 135.697 192.863 134.968 192.548C134.239 192.217 133.609 191.777 133.079 191.231C132.565 190.684 132.168 190.038 131.886 189.292C131.604 188.546 131.463 187.751 131.463 186.906C131.463 186.028 131.596 185.208 131.861 184.445C132.126 183.683 132.516 183.02 133.029 182.457C133.543 181.894 134.156 181.454 134.868 181.14C135.598 180.808 136.426 180.643 137.354 180.643C138.199 180.643 138.986 180.808 139.715 181.14C140.444 181.471 141.024 182.001 141.455 182.73H141.505V180.941H144.338ZM137.975 183.327C137.445 183.327 136.965 183.418 136.534 183.6C136.103 183.766 135.73 184.006 135.415 184.321C135.117 184.619 134.877 184.992 134.694 185.44C134.529 185.87 134.446 186.351 134.446 186.881C134.446 187.362 134.529 187.809 134.694 188.223C134.877 188.637 135.125 189.002 135.44 189.317C135.755 189.632 136.128 189.88 136.559 190.062C136.989 190.245 137.453 190.336 137.95 190.336C138.497 190.336 138.986 190.245 139.417 190.062C139.864 189.88 140.237 189.64 140.535 189.342C140.85 189.027 141.09 188.654 141.256 188.223C141.422 187.792 141.505 187.328 141.505 186.831C141.505 185.787 141.19 184.942 140.56 184.296C139.931 183.65 139.069 183.327 137.975 183.327Z" fill="#583131"/>
<path d="M117.788 180.941H120.621V182.855H120.671C120.953 182.258 121.383 181.744 121.963 181.314C122.543 180.866 123.33 180.643 124.325 180.643C125.12 180.643 125.791 180.775 126.338 181.04C126.901 181.305 127.357 181.653 127.705 182.084C128.053 182.515 128.301 183.012 128.45 183.575C128.6 184.139 128.674 184.727 128.674 185.34V192.871H125.692V186.831C125.692 186.5 125.675 186.135 125.642 185.738C125.609 185.324 125.518 184.942 125.369 184.594C125.236 184.23 125.021 183.932 124.722 183.7C124.424 183.451 124.018 183.327 123.504 183.327C123.007 183.327 122.585 183.41 122.237 183.575C121.905 183.741 121.624 183.965 121.392 184.247C121.176 184.528 121.019 184.851 120.92 185.216C120.82 185.58 120.77 185.961 120.77 186.359V192.871H117.788V180.941Z" fill="#583131"/>
<path d="M114.402 192.872H111.569V190.958H111.519C111.237 191.554 110.807 192.076 110.227 192.524C109.647 192.954 108.86 193.17 107.865 193.17C107.07 193.17 106.391 193.046 105.827 192.797C105.281 192.532 104.833 192.184 104.485 191.753C104.137 191.306 103.889 190.8 103.74 190.237C103.59 189.674 103.516 189.085 103.516 188.472V180.941H106.498V186.981C106.498 187.312 106.515 187.685 106.548 188.1C106.581 188.497 106.664 188.878 106.797 189.243C106.946 189.591 107.161 189.889 107.443 190.138C107.741 190.37 108.155 190.486 108.686 190.486C109.183 190.486 109.597 190.403 109.928 190.237C110.276 190.071 110.558 189.848 110.773 189.566C111.005 189.284 111.171 188.961 111.271 188.597C111.37 188.232 111.42 187.851 111.42 187.453V180.941H114.402V192.872Z" fill="#583131"/>
<path d="M89.5173 175.274H100.876V178.108H92.649V182.731H100.404V185.564H92.649V192.872H89.5173V175.274Z" fill="#583131"/>
<path d="M81.8894 191.132C81.8894 190.602 82.08 190.146 82.4611 189.765C82.8587 189.384 83.331 189.193 83.8778 189.193C84.408 189.193 84.872 189.376 85.2696 189.74C85.6673 190.105 85.8661 190.552 85.8661 191.082C85.8661 191.613 85.6673 192.068 85.2696 192.449C84.8885 192.83 84.4246 193.021 83.8778 193.021C83.6127 193.021 83.3558 192.971 83.1073 192.872C82.8753 192.772 82.6682 192.64 82.4859 192.474C82.3037 192.308 82.1545 192.11 82.0385 191.878C81.9391 191.646 81.8894 191.397 81.8894 191.132Z" fill="#583131"/>
<path d="M63.3035 175.274H70.2379C71.3978 175.274 72.5163 175.457 73.5933 175.821C74.6703 176.169 75.6231 176.708 76.4516 177.437C77.2801 178.166 77.9429 179.085 78.4399 180.196C78.937 181.289 79.1856 182.582 79.1856 184.073C79.1856 185.581 78.8956 186.89 78.3157 188C77.7523 189.094 77.0149 190.005 76.1036 190.734C75.2088 191.447 74.2064 191.985 73.0962 192.35C72.0026 192.698 70.9256 192.872 69.8651 192.872H63.3035V175.274ZM68.7715 190.038C69.7491 190.038 70.6687 189.93 71.5304 189.715C72.4086 189.483 73.1708 189.135 73.817 188.671C74.4632 188.191 74.9686 187.577 75.3331 186.832C75.7142 186.07 75.9048 185.15 75.9048 184.073C75.9048 183.012 75.7391 182.101 75.4077 181.339C75.0763 180.577 74.6123 179.964 74.0158 179.5C73.4359 179.019 72.74 178.671 71.928 178.456C71.1327 178.224 70.2545 178.108 69.2934 178.108H66.4352V190.038H68.7715Z" fill="#583131"/>
<path d="M43.5217 175.274H47.6725L56.1976 188.348H56.2473V175.274H59.379V192.872H55.4023L46.7031 179.375H46.6534V192.872H43.5217V175.274Z" fill="#583131"/>
<path d="M36.5295 175.274H39.6612V192.872H36.5295V175.274Z" fill="#583131"/>
<path d="M13.6687 175.274H18.4408L23.1383 187.602L27.8856 175.274H32.6079V192.872H29.6254V178.257H29.5757L24.2319 192.872H22.0447L16.701 178.257H16.6513V192.872H13.6687V175.274Z" fill="#583131"/>
</svg>
